<mxfile host="Electron" agent="Mozilla/5.0 (Windows NT 10.0; Win64; x64) AppleWebKit/537.36 (KHTML, like Gecko) draw.io/24.7.17 Chrome/128.0.6613.36 Electron/32.0.1 Safari/537.36" version="24.7.17">
  <diagram name="第 1 页" id="8CtCuOsys3hR2p4QYqbM">
    <mxGraphModel dx="1221" dy="823" grid="1" gridSize="10" guides="1" tooltips="1" connect="1" arrows="1" fold="1" page="1" pageScale="1" pageWidth="827" pageHeight="1169" math="0" shadow="0">
      <root>
        <mxCell id="0" />
        <mxCell id="1" parent="0" />
        <mxCell id="Sqm4q17-4cD9rXe7hXDx-5" value="" style="edgeStyle=orthogonalEdgeStyle;rounded=0;orthogonalLoop=1;jettySize=auto;html=1;" parent="1" source="AAzNbXR31eo6BCxiC4Rg-1" target="Sqm4q17-4cD9rXe7hXDx-2" edge="1">
          <mxGeometry relative="1" as="geometry" />
        </mxCell>
        <mxCell id="AAzNbXR31eo6BCxiC4Rg-1" value="&lt;font style=&quot;font-size: 14px;&quot;&gt;程序开始&lt;/font&gt;" style="ellipse;whiteSpace=wrap;html=1;" parent="1" vertex="1">
          <mxGeometry x="360" y="160" width="120" height="40" as="geometry" />
        </mxCell>
        <mxCell id="Sqm4q17-4cD9rXe7hXDx-1" value="&lt;font style=&quot;font-size: 14px;&quot;&gt;程序结束&lt;/font&gt;" style="ellipse;whiteSpace=wrap;html=1;" parent="1" vertex="1">
          <mxGeometry x="360" y="760" width="120" height="40" as="geometry" />
        </mxCell>
        <mxCell id="IWa2Fx2lJYsl5mEyNaZM-4" value="" style="edgeStyle=orthogonalEdgeStyle;rounded=0;orthogonalLoop=1;jettySize=auto;html=1;" edge="1" parent="1" source="Sqm4q17-4cD9rXe7hXDx-2" target="IWa2Fx2lJYsl5mEyNaZM-3">
          <mxGeometry relative="1" as="geometry" />
        </mxCell>
        <mxCell id="Sqm4q17-4cD9rXe7hXDx-2" value="&lt;span style=&quot;font-size: 14px;&quot;&gt;依次输入矩阵&lt;br&gt;各个位置上的值&lt;/span&gt;" style="shape=parallelogram;perimeter=parallelogramPerimeter;whiteSpace=wrap;html=1;fixedSize=1;" parent="1" vertex="1">
          <mxGeometry x="350" y="240" width="140" height="40" as="geometry" />
        </mxCell>
        <mxCell id="IWa2Fx2lJYsl5mEyNaZM-7" value="" style="edgeStyle=orthogonalEdgeStyle;rounded=0;orthogonalLoop=1;jettySize=auto;html=1;" edge="1" parent="1" source="IWa2Fx2lJYsl5mEyNaZM-2" target="IWa2Fx2lJYsl5mEyNaZM-6">
          <mxGeometry relative="1" as="geometry" />
        </mxCell>
        <mxCell id="IWa2Fx2lJYsl5mEyNaZM-8" value="&lt;font style=&quot;font-size: 14px;&quot;&gt;是&lt;/font&gt;" style="edgeLabel;html=1;align=center;verticalAlign=middle;resizable=0;points=[];" vertex="1" connectable="0" parent="IWa2Fx2lJYsl5mEyNaZM-7">
          <mxGeometry x="-0.25" y="2" relative="1" as="geometry">
            <mxPoint x="8" y="5" as="offset" />
          </mxGeometry>
        </mxCell>
        <mxCell id="IWa2Fx2lJYsl5mEyNaZM-23" style="edgeStyle=orthogonalEdgeStyle;rounded=0;orthogonalLoop=1;jettySize=auto;html=1;exitX=0;exitY=0.5;exitDx=0;exitDy=0;entryX=0.5;entryY=1;entryDx=0;entryDy=0;" edge="1" parent="1" source="IWa2Fx2lJYsl5mEyNaZM-2" target="IWa2Fx2lJYsl5mEyNaZM-20">
          <mxGeometry relative="1" as="geometry" />
        </mxCell>
        <mxCell id="IWa2Fx2lJYsl5mEyNaZM-24" value="否" style="edgeLabel;html=1;align=center;verticalAlign=middle;resizable=0;points=[];fontSize=14;" vertex="1" connectable="0" parent="IWa2Fx2lJYsl5mEyNaZM-23">
          <mxGeometry x="-0.4788" y="-2" relative="1" as="geometry">
            <mxPoint x="-1" y="-8" as="offset" />
          </mxGeometry>
        </mxCell>
        <mxCell id="IWa2Fx2lJYsl5mEyNaZM-2" value="j &amp;lt; x" style="rhombus;whiteSpace=wrap;html=1;fontSize=14;" vertex="1" parent="1">
          <mxGeometry x="377.5" y="480" width="85" height="40" as="geometry" />
        </mxCell>
        <mxCell id="IWa2Fx2lJYsl5mEyNaZM-15" value="" style="edgeStyle=orthogonalEdgeStyle;rounded=0;orthogonalLoop=1;jettySize=auto;html=1;" edge="1" parent="1" source="IWa2Fx2lJYsl5mEyNaZM-3" target="IWa2Fx2lJYsl5mEyNaZM-14">
          <mxGeometry relative="1" as="geometry" />
        </mxCell>
        <mxCell id="IWa2Fx2lJYsl5mEyNaZM-3" value="i = y - 1, j = 0" style="rounded=0;whiteSpace=wrap;html=1;fontSize=14;" vertex="1" parent="1">
          <mxGeometry x="360" y="320" width="120" height="40" as="geometry" />
        </mxCell>
        <mxCell id="IWa2Fx2lJYsl5mEyNaZM-12" style="edgeStyle=orthogonalEdgeStyle;rounded=0;orthogonalLoop=1;jettySize=auto;html=1;exitX=0.5;exitY=1;exitDx=0;exitDy=0;entryX=0.5;entryY=1;entryDx=0;entryDy=0;" edge="1" parent="1" source="IWa2Fx2lJYsl5mEyNaZM-6" target="IWa2Fx2lJYsl5mEyNaZM-9">
          <mxGeometry relative="1" as="geometry" />
        </mxCell>
        <mxCell id="IWa2Fx2lJYsl5mEyNaZM-6" value="&lt;span style=&quot;font-size: 14px;&quot; lang=&quot;EN-US&quot;&gt;result[y - i - 1][j]&lt;br&gt;= mat[j][i]&lt;/span&gt;" style="rounded=0;whiteSpace=wrap;html=1;" vertex="1" parent="1">
          <mxGeometry x="360" y="560" width="120" height="40" as="geometry" />
        </mxCell>
        <mxCell id="IWa2Fx2lJYsl5mEyNaZM-13" style="edgeStyle=orthogonalEdgeStyle;rounded=0;orthogonalLoop=1;jettySize=auto;html=1;exitX=0.5;exitY=0;exitDx=0;exitDy=0;" edge="1" parent="1" source="IWa2Fx2lJYsl5mEyNaZM-9">
          <mxGeometry relative="1" as="geometry">
            <mxPoint x="420" y="460" as="targetPoint" />
            <Array as="points">
              <mxPoint x="545" y="460" />
            </Array>
          </mxGeometry>
        </mxCell>
        <mxCell id="IWa2Fx2lJYsl5mEyNaZM-9" value="&lt;font style=&quot;font-size: 14px;&quot;&gt;j ++&lt;/font&gt;" style="rounded=0;whiteSpace=wrap;html=1;" vertex="1" parent="1">
          <mxGeometry x="520" y="520" width="50" height="40" as="geometry" />
        </mxCell>
        <mxCell id="IWa2Fx2lJYsl5mEyNaZM-16" value="" style="edgeStyle=orthogonalEdgeStyle;rounded=0;orthogonalLoop=1;jettySize=auto;html=1;" edge="1" parent="1" source="IWa2Fx2lJYsl5mEyNaZM-14" target="IWa2Fx2lJYsl5mEyNaZM-2">
          <mxGeometry relative="1" as="geometry" />
        </mxCell>
        <mxCell id="IWa2Fx2lJYsl5mEyNaZM-25" value="&lt;font style=&quot;font-size: 14px;&quot;&gt;是&lt;/font&gt;" style="edgeLabel;html=1;align=center;verticalAlign=middle;resizable=0;points=[];" vertex="1" connectable="0" parent="IWa2Fx2lJYsl5mEyNaZM-16">
          <mxGeometry x="-0.0833" relative="1" as="geometry">
            <mxPoint x="-10" as="offset" />
          </mxGeometry>
        </mxCell>
        <mxCell id="IWa2Fx2lJYsl5mEyNaZM-26" style="edgeStyle=orthogonalEdgeStyle;rounded=0;orthogonalLoop=1;jettySize=auto;html=1;exitX=1;exitY=0.5;exitDx=0;exitDy=0;entryX=0.5;entryY=0;entryDx=0;entryDy=0;" edge="1" parent="1" source="IWa2Fx2lJYsl5mEyNaZM-14" target="IWa2Fx2lJYsl5mEyNaZM-28">
          <mxGeometry relative="1" as="geometry">
            <mxPoint x="420" y="680" as="targetPoint" />
            <Array as="points">
              <mxPoint x="630" y="420" />
              <mxPoint x="630" y="660" />
              <mxPoint x="421" y="660" />
            </Array>
          </mxGeometry>
        </mxCell>
        <mxCell id="IWa2Fx2lJYsl5mEyNaZM-14" value="i &amp;gt;= 0" style="rhombus;whiteSpace=wrap;html=1;fontSize=14;" vertex="1" parent="1">
          <mxGeometry x="377.5" y="400" width="85" height="40" as="geometry" />
        </mxCell>
        <mxCell id="IWa2Fx2lJYsl5mEyNaZM-22" style="edgeStyle=orthogonalEdgeStyle;rounded=0;orthogonalLoop=1;jettySize=auto;html=1;exitX=0.5;exitY=0;exitDx=0;exitDy=0;" edge="1" parent="1" source="IWa2Fx2lJYsl5mEyNaZM-20">
          <mxGeometry relative="1" as="geometry">
            <mxPoint x="420" y="380" as="targetPoint" />
            <Array as="points">
              <mxPoint x="320" y="380" />
              <mxPoint x="420" y="380" />
            </Array>
          </mxGeometry>
        </mxCell>
        <mxCell id="IWa2Fx2lJYsl5mEyNaZM-20" value="&lt;font style=&quot;font-size: 14px;&quot;&gt;i --&lt;/font&gt;" style="rounded=0;whiteSpace=wrap;html=1;" vertex="1" parent="1">
          <mxGeometry x="270" y="400" width="60" height="40" as="geometry" />
        </mxCell>
        <mxCell id="IWa2Fx2lJYsl5mEyNaZM-29" value="" style="edgeStyle=orthogonalEdgeStyle;rounded=0;orthogonalLoop=1;jettySize=auto;html=1;" edge="1" parent="1" source="IWa2Fx2lJYsl5mEyNaZM-28" target="Sqm4q17-4cD9rXe7hXDx-1">
          <mxGeometry relative="1" as="geometry" />
        </mxCell>
        <mxCell id="IWa2Fx2lJYsl5mEyNaZM-28" value="&lt;span style=&quot;font-size: 14px;&quot;&gt;依次输出矩阵&lt;br&gt;各个位置上的值&lt;/span&gt;" style="shape=parallelogram;perimeter=parallelogramPerimeter;whiteSpace=wrap;html=1;fixedSize=1;" vertex="1" parent="1">
          <mxGeometry x="350" y="680" width="140" height="40" as="geometry" />
        </mxCell>
        <mxCell id="IWa2Fx2lJYsl5mEyNaZM-31" value="" style="rounded=0;whiteSpace=wrap;html=1;dashed=1;fillColor=none;" vertex="1" parent="1">
          <mxGeometry x="230" y="300" width="360" height="340" as="geometry" />
        </mxCell>
        <mxCell id="IWa2Fx2lJYsl5mEyNaZM-33" value="&#xa;&lt;span style=&quot;font-size:12.0pt;font-family:&#xa;&amp;quot;Times New Roman&amp;quot;,serif;mso-fareast-font-family:宋体;mso-font-kerning:1.0pt;&#xa;mso-ansi-language:EN-US;mso-fareast-language:ZH-CN;mso-bidi-language:AR-SA&quot; lang=&quot;EN-US&quot;&gt;rotateMatrix&lt;/span&gt;&#xa;&#xa;&#xa;&#xa;" style="text;html=1;align=center;verticalAlign=middle;resizable=0;points=[];autosize=1;strokeColor=none;fillColor=none;" vertex="1" parent="1">
          <mxGeometry x="220" y="270" width="110" height="90" as="geometry" />
        </mxCell>
      </root>
    </mxGraphModel>
  </diagram>
</mxfile>
